HIERARCHY
ROOT hip
{
	OFFSET 0.000000 0.000000 0.000000 
	CHANNELS 6 Xposition Yposition Zposition Xrotation Zrotation Yrotation
	JOINT abdomen
	{
		OFFSET 0.000000 3.402643 0.000000 
		CHANNELS 3 Xrotation Zrotation Yrotation
		JOINT chest
		{
			OFFSET 0.000000 8.438565 -0.680529 
			CHANNELS 3 Xrotation Zrotation Yrotation
			JOINT neck
			{
				OFFSET 0.000000 10.207942 -0.272212 
				CHANNELS 3 Xrotation Zrotation Yrotation
				JOINT head
				{
					OFFSET 0.000000 3.130431 0.000000 
					CHANNELS 3 Xrotation Zrotation Yrotation
					End Site
					{
						OFFSET 0.000000 3.130435 0.000000 
					}
				}
			}
			JOINT lCollar
			{
				OFFSET 3.470700 6.669187 -0.816635 
				CHANNELS 3 Yrotation Zrotation Xrotation
				JOINT lShldr
				{
					OFFSET 3.198488 0.000000 0.000000 
					CHANNELS 3 Zrotation Yrotation Xrotation
					JOINT lForeArm
					{
						OFFSET 10.139888 0.000000 0.000000 
						CHANNELS 3 Yrotation Zrotation Xrotation
						JOINT lHand
						{
							OFFSET 8.370511 0.000000 0.000000 
							CHANNELS 3 Zrotation Yrotation Xrotation
							End Site
							{
								OFFSET 4.083176 0.000000 0.000000 
							}
						}
					}
				}
			}
			JOINT rCollar
			{
				OFFSET -3.470700 6.669187 -0.816635 
				CHANNELS 3 Yrotation Zrotation Xrotation
				JOINT rShldr
				{
					OFFSET -3.198488 0.000000 0.000000 
					CHANNELS 3 Zrotation Yrotation Xrotation
					JOINT rForeArm
					{
						OFFSET -10.139888 0.000000 0.000000 
						CHANNELS 3 Yrotation Zrotation Xrotation
						JOINT rHand
						{
							OFFSET -8.370511 0.000000 0.000000 
							CHANNELS 3 Zrotation Yrotation Xrotation
							End Site
							{
								OFFSET -4.083176 0.000000 0.000000 
							}
						}
					}
				}
			}
		}
	}
	JOINT lThigh
	{
		OFFSET 5.308129 -1.633274 1.361059 
		CHANNELS 3 Xrotation Zrotation Yrotation
		JOINT lShin
		{
			OFFSET -2.041588 -20.007561 0.000000 
			CHANNELS 3 Xrotation Zrotation Yrotation
			JOINT lFoot
			{
				OFFSET 0.000000 -19.190928 -1.224953 
				CHANNELS 3 Xrotation Yrotation Zrotation
				End Site
				{
					OFFSET 0.000000 -2.449906 4.627600 
				}
			}
		}
	}
	JOINT rThigh
	{
		OFFSET -5.308129 -1.633274 1.361059 
		CHANNELS 3 Xrotation Zrotation Yrotation
		JOINT rShin
		{
			OFFSET 2.041588 -20.007561 0.000000 
			CHANNELS 3 Xrotation Zrotation Yrotation
			JOINT rFoot
			{
				OFFSET 0.000000 -19.190928 -1.224953 
				CHANNELS 3 Xrotation Yrotation Zrotation
				End Site
				{
					OFFSET 0.000000 -2.449906 4.627600 
				}
			}
		}
	}
}
MOTION
Frames: 16
Frame Time: 0.016667
-0.220382 48.012123 -1.659364 2.659844 0.667589 7.803339 23.700546 -0.804718 -6.875690 -11.951496 5.091179 -5.793701 -28.306297 -6.035286 -15.449656 29.219027 7.719692 -14.991260 -6.758063 -8.314455 23.434822 -62.065746 -19.539722 14.121037 -33.758949 -2.933244 -87.461632 17.772236 17.075905 5.318886 13.055152 13.599424 23.862268 57.567116 15.658690 1.807442 38.305344 2.851446 -87.623146 -14.486635 2.582345 -0.858163 -14.714540 6.795340 11.655410 16.933327 -3.733781 -11.487363 -31.529619 3.400056 -10.066442 -1.855410 -5.204438 -13.749476 21.515722 3.506384 15.025839 -17.678236 7.710223 14.522348 
-0.220159 48.013203 -1.667434 2.659844 0.667589 7.803339 23.700546 -0.804718 -6.875690 -11.951496 5.091179 -5.793701 -28.306297 -6.035286 -15.449656 29.219027 7.719692 -14.991260 -6.750995 -8.155261 23.449610 -61.967575 -19.526588 14.896567 -34.110935 -2.938096 -87.460617 17.772236 17.075905 5.318886 13.075365 13.650829 23.862516 57.636803 15.740775 1.708147 38.305344 2.851446 -87.623146 -14.486635 2.582345 -0.858163 -14.665324 6.678006 10.599472 16.797140 -3.694504 -10.257563 -31.793278 3.399194 -10.067911 -1.942901 -5.173081 -13.670751 21.684706 3.506328 15.338380 -17.709330 7.740302 14.443745 
-0.219949 48.013451 -1.675513 2.742777 0.638697 7.715342 23.700546 -0.804718 -6.875690 -11.951496 5.091179 -5.793701 -28.306297 -6.035286 -15.449656 29.219027 7.719692 -14.991260 -6.763476 -8.224766 23.335506 -61.945969 -19.525124 15.517003 -34.374992 -2.939173 -87.455055 17.772236 17.075905 5.318886 13.097064 13.569412 23.806986 57.650253 15.745914 1.535605 38.305344 2.851446 -87.623146 -14.486635 2.582345 -0.858163 -14.674713 6.589709 10.146571 16.744728 -3.711372 -9.555292 -31.708036 3.319339 -10.021303 -2.117638 -5.275702 -13.767486 21.695379 3.428049 15.316216 -17.707142 7.858004 14.510354 
-0.219740 48.013699 -1.683591 2.827201 0.619456 7.637218 23.700546 -0.804718 -6.875690 -11.951496 5.091179 -5.793701 -28.306297 -6.035286 -15.449656 29.219027 7.719692 -14.991260 -6.771122 -8.281443 23.220613 -61.928108 -19.525658 16.136864 -34.629696 -2.934380 -87.457466 17.772236 17.075905 5.318886 13.120380 13.481247 23.763044 57.665409 15.742961 1.368073 38.305344 2.851446 -87.623146 -14.486635 2.582345 -0.858163 -14.661865 6.499914 9.702917 16.672409 -3.733458 -8.823479 -31.621775 3.239181 -9.986209 -2.284793 -5.388485 -13.884269 21.706751 3.339876 15.302127 -17.674412 8.006123 14.577725 
-0.217290 48.011833 -1.687084 2.827201 0.619456 7.637218 23.700546 -0.804718 -6.875690 -11.951496 5.091179 -5.793701 -28.306297 -6.035286 -15.449656 29.219027 7.719692 -14.991260 -6.739445 -8.136580 23.314138 -61.841270 -19.441996 16.309750 -34.815662 -2.934595 -87.461395 17.772236 17.075905 5.318886 13.033949 13.526237 23.860834 57.831470 15.751707 1.359719 38.305344 2.851446 -87.623146 -14.486635 2.582345 -0.858163 -14.778149 6.440637 9.561295 16.772787 -3.730731 -8.499248 -31.722389 3.290416 -9.949304 -2.480214 -5.378470 -13.965505 22.064623 3.330607 15.605965 -17.682726 7.813818 14.591856 
-0.214842 48.009975 -1.690578 2.827201 0.619456 7.637218 23.700546 -0.804718 -6.875690 -11.951496 5.091179 -5.793701 -28.306297 -6.035286 -15.449656 29.219027 7.719692 -14.991260 -6.708267 -7.991631 23.409182 -61.766178 -19.360863 16.494678 -34.991856 -2.934384 -87.464790 17.772236 17.075905 5.318886 12.962876 13.563812 23.946041 58.009171 15.752128 1.361707 38.305344 2.851446 -87.623146 -14.486635 2.582345 -0.858163 -14.911170 6.396026 9.390783 16.859373 -3.753028 -8.138518 -31.803612 3.370722 -9.913620 -2.654646 -5.374181 -14.056307 22.413052 3.321331 15.889647 -17.657820 7.622908 14.591809 
-0.214532 48.010166 -1.687769 2.827201 0.619456 7.637218 23.700546 -0.804718 -6.875690 -11.951496 5.091179 -5.793701 -28.306297 -6.035286 -15.449656 29.219027 7.719692 -14.991260 -6.720901 -8.117804 23.372873 -61.598831 -19.356766 16.242956 -34.991856 -2.934384 -87.464790 17.772236 17.075905 5.318886 12.869846 13.493541 23.992683 58.088100 15.848986 1.266580 38.305344 2.851446 -87.623146 -14.486635 2.582345 -0.858163 -15.101840 6.402752 9.381971 17.108000 -3.772257 -8.060882 -31.787836 3.390937 -10.003529 -2.753628 -5.428347 -13.972308 22.511202 3.311380 15.603025 -17.641487 7.653442 14.628546 
-0.214222 48.010365 -1.684958 2.827201 0.619456 7.637218 23.700546 -0.804718 -6.875690 -11.951496 5.091179 -5.793701 -28.306297 -6.035286 -15.449656 29.219027 7.719692 -14.991260 -6.719355 -8.250214 23.348206 -61.431587 -19.351574 15.991312 -34.991856 -2.934384 -87.464790 17.772236 17.075905 5.318886 12.778762 13.416383 24.046299 58.168499 15.937888 1.176690 38.305344 2.851446 -87.623146 -14.486635 2.582345 -0.858163 -15.285760 6.401684 9.364255 17.406544 -3.792124 -7.978024 -31.801046 3.391997 -10.096408 -2.850987 -5.485313 -13.868423 22.625423 3.330049 15.322462 -17.656502 7.693078 14.664430 
-0.214140 48.008114 -1.674111 2.828151 0.619328 7.725104 23.700546 -0.804718 -6.875690 -11.951496 5.091179 -5.793701 -28.306297 -6.035286 -15.449656 29.219027 7.719692 -14.991260 -6.781353 -8.175578 23.371111 -61.349606 -19.250174 15.718504 -34.991856 -2.934384 -87.464790 17.772236 17.075905 5.318886 12.862171 13.302314 24.123362 58.344631 15.869526 1.172600 38.217102 2.855455 -87.624825 -14.486635 2.582345 -0.858163 -15.465305 6.492127 9.185100 17.673344 -3.782601 -7.810730 -31.801888 3.284611 -10.070856 -2.937997 -5.443489 -13.681288 22.879795 3.421722 15.025559 -17.679266 7.805240 14.619776 
-0.214060 48.005871 -1.663264 2.829101 0.619199 7.812991 23.700546 -0.804718 -6.875690 -11.951496 5.091179 -5.793701 -28.306297 -6.035286 -15.449656 29.219027 7.719692 -14.991260 -6.852437 -8.104867 23.393465 -61.269596 -19.152884 15.454382 -34.991856 -2.934384 -87.464790 17.772236 17.075905 5.318886 12.940969 13.175651 24.201588 58.519115 15.804684 1.154812 38.129177 2.851809 -87.620453 -14.486635 2.582345 -0.858163 -15.650523 6.569841 9.006059 17.929567 -3.769511 -7.680945 -31.763353 3.216087 -10.051695 -3.016649 -5.425819 -13.515002 23.124725 3.509442 14.727731 -17.710894 7.925325 14.570081 
-0.214950 48.002701 -1.645889 2.744736 0.638429 7.891220 23.700546 -0.804718 -6.875690 -11.951496 5.091179 -5.793701 -28.306297 -6.035286 -15.449656 29.219027 7.719692 -14.991260 -7.030127 -8.184526 23.403824 -61.357555 -19.153572 15.100604 -35.080482 -2.922319 -87.458038 17.772236 17.075905 5.318886 13.086619 12.903613 24.095531 58.696365 15.621822 1.240068 38.040936 2.855831 -87.622116 -14.486635 2.582345 -0.858163 -15.873243 6.559198 8.725997 18.565136 -3.782496 -7.699417 -31.700415 3.235532 -10.118036 -3.015895 -5.443043 -13.260459 23.315197 3.510122 14.294226 -17.628923 7.992678 14.477177 
-0.215839 47.999535 -1.628513 2.661892 0.667305 7.979109 23.700546 -0.804718 -6.875690 -11.951496 5.091179 -5.793701 -28.306297 -6.035286 -15.449656 29.219027 7.719692 -14.991260 -7.216838 -8.268143 23.411934 -61.447121 -19.155949 14.746664 -35.159340 -2.909847 -87.450752 17.772236 17.075905 5.318886 13.240355 12.635103 23.991110 58.883240 15.443294 1.335375 37.953396 2.846175 -87.625427 -14.486635 2.582345 -0.858163 -16.108482 6.540121 8.456941 19.191511 -3.782890 -7.744092 -31.616621 3.277153 -10.204017 -3.006534 -5.474467 -13.026201 23.497084 3.496724 13.876935 -17.526773 8.055149 14.377659 
-0.219321 47.992859 -1.603678 2.567883 0.686516 8.057228 23.700546 -0.804718 -6.875690 -11.951496 5.091179 -5.793701 -28.306297 -6.035286 -15.449656 29.219027 7.719692 -14.991260 -7.588162 -8.261394 23.462873 -61.728584 -18.992037 14.298544 -35.345707 -2.904486 -87.462479 17.772236 17.075905 5.318886 13.768748 12.533937 23.892933 58.988152 14.929105 1.424653 37.787060 2.848705 -87.636887 -14.486635 2.582345 -0.858163 -16.494667 6.582665 8.213511 20.033020 -3.712317 -7.627842 -31.625771 3.291116 -10.076663 -3.093649 -5.443070 -12.829862 23.870001 3.496472 13.620776 -17.611601 8.071507 14.386962 
-0.222804 47.986187 -1.578842 2.485197 0.715367 8.145234 23.700546 -0.804718 -6.875690 -11.951496 5.091179 -5.793701 -28.306297 -6.035286 -15.449656 29.219027 7.719692 -14.991260 -7.950564 -8.251628 23.513453 -62.006577 -18.831993 13.858551 -35.531658 -2.904755 -87.466209 17.772236 17.075905 5.318886 14.298861 12.425196 23.800674 59.100315 14.414279 1.512749 37.610958 2.850924 -87.647835 -14.486635 2.582345 -0.858163 -16.876368 6.606461 7.981393 20.855925 -3.613891 -7.534050 -31.643768 3.307827 -9.959234 -3.172544 -5.425895 -12.644078 24.231573 3.496590 13.412564 -17.702837 8.069643 14.408045 
-0.232381 47.977585 -1.547390 2.317392 0.753682 8.330894 23.700546 -0.804718 -6.875690 -11.951496 5.091179 -5.793701 -28.306297 -6.035286 -15.449656 29.219027 7.719692 -14.991260 -8.216365 -8.248228 23.541876 -62.377022 -18.664173 13.499982 -35.609756 -2.905969 -87.456535 17.772236 17.075905 5.318886 14.833209 12.170439 23.769516 59.288704 14.076794 1.584365 37.610958 2.850924 -87.647835 -14.486635 2.582345 -0.858163 -17.574566 6.599587 7.629097 22.361279 -3.614053 -7.270663 -31.694376 3.295267 -10.073937 -3.073631 -5.392650 -12.464139 24.505360 3.496560 13.169211 -17.668232 7.895919 14.449730 
-0.241959 47.968983 -1.515937 2.151283 0.801610 8.516562 23.700546 -0.804718 -6.875690 -11.951496 5.091179 -5.793701 -28.306297 -6.035286 -15.449656 29.219027 7.719692 -14.991260 -8.482209 -8.245198 23.569786 -62.740875 -18.491381 13.132072 -35.688210 -2.899301 -87.441162 17.772236 17.075905 5.318886 15.370475 11.931369 23.745493 59.476967 13.735409 1.664990 37.610958 2.850924 -87.647835 -14.486635 2.582345 -0.858163 -18.281076 6.592051 7.257640 23.862829 -3.626813 -7.010254 -31.753035 3.299812 -10.211551 -2.986452 -5.364932 -12.265205 24.779533 3.500540 12.897606 -17.638340 7.735987 14.487999 
